<mxfile host="Electron" agent="Mozilla/5.0 (Windows NT 10.0; Win64; x64) AppleWebKit/537.36 (KHTML, like Gecko) draw.io/24.7.8 Chrome/128.0.6613.36 Electron/32.0.1 Safari/537.36" version="24.7.8">
  <diagram name="Page-1" id="g2zT7FeewelC-n8Tju7q">
    <mxGraphModel dx="1948" dy="1180" grid="1" gridSize="10" guides="1" tooltips="1" connect="1" arrows="1" fold="1" page="1" pageScale="1" pageWidth="850" pageHeight="1100" math="0" shadow="0">
      <root>
        <mxCell id="0" />
        <mxCell id="1" parent="0" />
        <mxCell id="qyLjw69993jkE6t0Vqt_-1" style="edgeStyle=orthogonalEdgeStyle;rounded=0;orthogonalLoop=1;jettySize=auto;html=1;entryX=0;entryY=0.5;entryDx=0;entryDy=0;endArrow=none;endFill=0;" parent="1" source="E_isp1oj7QHbesML1Iez-1" target="E_isp1oj7QHbesML1Iez-2" edge="1">
          <mxGeometry relative="1" as="geometry" />
        </mxCell>
        <mxCell id="qyLjw69993jkE6t0Vqt_-2" style="edgeStyle=orthogonalEdgeStyle;rounded=0;orthogonalLoop=1;jettySize=auto;html=1;endArrow=none;endFill=0;" parent="1" source="E_isp1oj7QHbesML1Iez-1" target="E_isp1oj7QHbesML1Iez-5" edge="1">
          <mxGeometry relative="1" as="geometry" />
        </mxCell>
        <mxCell id="qyLjw69993jkE6t0Vqt_-3" style="edgeStyle=orthogonalEdgeStyle;rounded=0;orthogonalLoop=1;jettySize=auto;html=1;endArrow=none;endFill=0;" parent="1" source="E_isp1oj7QHbesML1Iez-1" target="E_isp1oj7QHbesML1Iez-6" edge="1">
          <mxGeometry relative="1" as="geometry" />
        </mxCell>
        <mxCell id="qyLjw69993jkE6t0Vqt_-4" style="edgeStyle=orthogonalEdgeStyle;rounded=0;orthogonalLoop=1;jettySize=auto;html=1;entryX=0;entryY=0.5;entryDx=0;entryDy=0;endArrow=none;endFill=0;" parent="1" source="E_isp1oj7QHbesML1Iez-1" target="E_isp1oj7QHbesML1Iez-7" edge="1">
          <mxGeometry relative="1" as="geometry" />
        </mxCell>
        <mxCell id="E_isp1oj7QHbesML1Iez-1" value="Teacher" style="rounded=0;whiteSpace=wrap;html=1;fillColor=#d5e8d4;strokeColor=#82b366;" parent="1" vertex="1">
          <mxGeometry x="-90" y="510" width="120" height="70" as="geometry" />
        </mxCell>
        <mxCell id="E_isp1oj7QHbesML1Iez-2" value="Subject" style="rounded=0;whiteSpace=wrap;html=1;fillColor=#dae8fc;strokeColor=#6c8ebf;" parent="1" vertex="1">
          <mxGeometry x="490" y="470" width="120" height="30" as="geometry" />
        </mxCell>
        <mxCell id="E_isp1oj7QHbesML1Iez-5" value="Subject" style="rounded=0;whiteSpace=wrap;html=1;fillColor=#dae8fc;strokeColor=#6c8ebf;" parent="1" vertex="1">
          <mxGeometry x="490" y="510" width="120" height="30" as="geometry" />
        </mxCell>
        <mxCell id="E_isp1oj7QHbesML1Iez-6" value="Subject" style="rounded=0;whiteSpace=wrap;html=1;fillColor=#dae8fc;strokeColor=#6c8ebf;" parent="1" vertex="1">
          <mxGeometry x="490" y="550" width="120" height="30" as="geometry" />
        </mxCell>
        <mxCell id="E_isp1oj7QHbesML1Iez-7" value="Subject" style="rounded=0;whiteSpace=wrap;html=1;fillColor=#dae8fc;strokeColor=#6c8ebf;" parent="1" vertex="1">
          <mxGeometry x="490" y="590" width="120" height="30" as="geometry" />
        </mxCell>
        <mxCell id="kN2u7OVDUaO2u1wpTAqU-4" value="1" style="text;html=1;align=center;verticalAlign=middle;resizable=0;points=[];autosize=1;strokeColor=none;fillColor=none;fontStyle=1" vertex="1" parent="1">
          <mxGeometry x="24" y="520" width="30" height="30" as="geometry" />
        </mxCell>
        <mxCell id="kN2u7OVDUaO2u1wpTAqU-6" value="N" style="text;html=1;align=center;verticalAlign=middle;resizable=0;points=[];autosize=1;strokeColor=none;fillColor=none;fontStyle=1" vertex="1" parent="1">
          <mxGeometry x="235" y="520" width="30" height="30" as="geometry" />
        </mxCell>
        <mxCell id="kN2u7OVDUaO2u1wpTAqU-8" value="" style="shape=image;verticalLabelPosition=bottom;labelBackgroundColor=default;verticalAlign=top;aspect=fixed;imageAspect=0;image=data:image/png,iVBORw0KGgoAAAANSUhEUgAAAsMAAACtCAYAAABV7XJBAAAAAXNSR0IArs4c6QAAAARnQU1BAACxjwv8YQUAAAAJcEhZcwAADsMAAA7DAcdvqGQAADS/SURBVHhe7d1/cBzVgSfwryTLkmVsC//mh2PkEVkl7IXEgTvCjyM5W9rcCkYXqnaTbGq3bpeKlOw6tVWiGP2RIj+K4+6kBO/urSsbKRdyx5Ij2SogFigByY4PnJBbfgXIAlpbY2HABhvbSJas31Lfe69fz/TMvJbeaGZkSf39pDqe7nndM3p6or/v9ZseOML58+flP3M6ceKEfjQ72+OFrRzrz8y2HOvPzLYc68/Mthzrz8y2HOvPzLYc68/Mthzrz8y23HKvv2IQEREREYUUwzARERERhRbDMBERERGFFsMwEREREYUWwzARERERhRbDMBERERGFVpG8zYR+PKehoSGsWbNGr1G2WH+5Yf3lhvWXG9Zfblh/uWH95Yb1l5tlX3/y/mq292fjffrMbMux/sxsy7H+zGzLsf7MbMux/sxsy7H+zGzLsf7MbMux/sxsyy33+uM0CSIiIiIKLYZhIiIiIgothmEiIiIiCi2GYSIiIiIKLYZhIiIiIgothmEiIiIiCq0ieUsJ2/vHnTx5EpdffrleMzt16hR+9rOfYd2lG1BeVoYVJUX6GaJUU9MORsfHcP6DD/C5z/0nbN68WT9jZtP+JNv2HLZyrD8z23KsPzPbcqw/M9tyrD8z23KvvPIKXnzxRVRcspbZZInzssOI+N3ffvttKjvk2l7yGoYffPAfsXbdOkyuXIuRUvFvySpMF8nBZzY6SuegxJlB6fQoKiYHsWLiPIYGB/Fnf/an+vlMPBmY2ZZj/ZnZlmP9mdmWY/2Z2ZZj/ZnZlGM2WU7M2UEOqOXSXvL2DXT/5+GHseXyK3Gu4kOYLC7TW4nslM6MYf2Ft3H6vRP44he+oLemsv2PI5mx/nLD+ssN6y83rL/5YTZZ3myyg428jAw/+OCDWHPpBpy5JIKZohK9lSg7xc4UNg33Y2jgLP70TzNHiDkyYmZbjvVnZluO9WdmW471Z2ZbjvVnNls5ZpNwmCs7+AW1l5w/QCfnCK9dV4kPVm9nY6OczBStEO1oG9asXYfTp0/rrURERNlhNgmPfGSHnEeGH3jgAay5bAfOrbpCb0n64Tcm9SM767euxM0Nb2Lt+k0oW1Wht1LYrB99B+dPHsOdd96pt7g4MmJmW471Z2ZbjvVnZluO9WdmW471ZxZUjtkkfIKyg19Qe8l5ZFh+MlNOSDf58McrUbOzEh/55KXuslMv3mP97+99olKVvapmDV57/lc4f+59fQQKo9GVlVi9Zq1eIyIiyg6zSfjkkh1yDsPlZSsxWVKu11L98Vc248G/vRz/+28uw4/2Xob/ef9l6PjuZfiH1q3Y99+34m//61Z8979sRdu9W3Hft7bihv+4Gu+fOI6x0RF9BAqj8eJydesbIiKi+WA2CZ9cskPOYXhFSTGmA+bjFDkOhkam8Nqb5/HqsUH0vj2EUx+M4XdvDuKVYwN479w4ftc/gJf7BjAxOYPpySm958X1RvuH8ZXPfBiPvqA3UNbGzp/FqTeem3WRZUzk/C7ZroiIiOZjSWSTF76jssZX2n+tN9DFyg55Shzme/XNiAY3LZYx0ZhGxqYwOj6N8Ul5s+QZXBDLuNgu/x0ZncDQ6CgmJyb0nkF+jUdlw/nMd/CG3kKLU9nqdTh95Lc48fIzxuX0v76E0oqgyxm89yMREeVqobJJoXiZ56s4fFJvmoelNMB3sbJDQYffZqanMT0DTE6JxjXliB7WFCamHdXoxiem1LbxiRmxfQJj41OYnspuUjstXkUlK3D5v7lJr2W6/NpbULKiVK8REREtjKWTTW7CHYeO4PuH/gG3zP3ZyWXhYmWHgobhadHapmdED0w0OrmIdoepafmvo/6dVI992+X/BXoLh7/+5+hWj3+Av/OPEJ/8Kb6n1vXiXXJI3y6W7z3xlvucIo85y/Mv6ksYcvn6T5GcOp++X3KkOtkD0z26EF/+2FB1DSrWb9FrSRWXbsaGqz6q14iIiBZOfrOJ6/0nvurLBGJRmSFzZNc4SvvWQ76sYso1vpFhb2qFXlIyS0bm+Soebf8q/u4n7tPdd7vbF/sI8cXIDkUnTpyw/gY6k5deegknLvk9vZbq0orNuOXqVTh6YlhdflhR4mDdugqcOD0qemDT2LxhNd4RjycnR7F96xq80vcBun58L274g89hW/VH9FH8ZMOSgfjL+OtDd0OVkL/8L92DV7/wI3y/6SbVIO+5/yA+dtcB/OXO3+B7j1+JvxTb3QC7Gz9+Fqj7zhHccZ23vgtf+rHudYlG9r33Po/PnNjtNh59TNl45Xrqfvo9eK9/4724977P44wum6CPEVZDp9/G0YM/1Wuuq//DH2PNlg/pNbMrhv8VO3fu1GtERET2FjKbpOSO2+S5TWSVr7+DW+67EodVZknmjJQ8ARFs7/4BoPPDJhl05XoiN6TllJPu897rpBzr8tQsskns/YYIwmdu/wdsfNyfYeQ7XvwWOjvkfJ/hJ554IrDBrStbjxuvXqMb3CRWFAOV6y7B2+/LRjaJjetX46R6PIYPiQb3u6Nn8ORP/1tWYdhrhIlfclo4lQ3CkxGUA8qlht+A/QIa61JsdIV27PDPMPBOn3pcue1q7Li5QT2ejWzQt912m15z8T6bZrblWH9mtuVYf2a25Vh/ZrblWH9mQeUWMpt4mSERat3NgpdZ5gjDiTyRnnFM+SJ5LDVKrPe/94qH0gJ5UnqmWSrylR38gtpLQadJTIke1uQMMDoxhYnxcYyNT2B0bEw9npgYx+ioeDw5LspNYXLawbTFpYh0Z04cVP96w/9fkUFVbXHJIOtdMpANJeHkW265D12ZEoTn5O33kz/Xx5UNVT1DAa74xKdRVFwilmJcfu2/11uJiIgWXr6zyUduvxcfkw+evQf36LyROiUzH97CGXXIg/jxl3TekUFY87LQ1q2zj5wuJQuZHQobhkUDkktZyTRKS2ZQUizWJydEL0yuO/rxDFaUFqt5O8509mHYI3s831cTzfUiemdyyoLXU5Lb7r1rly6dB7In53+9EE1wz1bZJZXYdPXHsenDO1G+5lK9lYiIaOHlPZtc/nn8pc4CXs549f6f4g1sw6Yb1WoeyZFhf/YQyzKdirmQ2aHAI8OTKBWNaevGS8SyFhsvXYNVq8qxeeMabN6wBhWrV4nHa8WyDkUlK+HMiFaXJa9H1v2Y7wNucqqE7wNvXk/J6zkp130eX5KN9CcPpUxMn7M3Z9pPXcrI7dYny93W3/8Utl5zg14jIiK6OPKdTeTcXO/8v2nnp91R4hs/hI1qi9+v8YacThHg/ScegrxJwMfu+rz7magUH8Itn/uy+Pcgfvy474P5cqpE+6+NWcj/vpaqhcoOBQ3DZ86N4ufPvo1fvnASv3rlFH7z6in88yvv4sVXT+K3r72LV187gX/5lxN4/fV38Nq/9GN0ZFzvGeQm3PEd2Rh8d5OQPbIfi0bguzzhTZX4SNOPUCf+9aZQHHrLPzIsGtZ9B0SwNV9yCGbYj1Ml5rRiZblaiIiILqb8ZxNfHlD548v4azV3WOSFv5Ih1XteBIUv6F389LRLNZXzCz/KmPObcN3d+L7MQIlpmmLxcoshC6l5zEJ6FlpKXyi2UNmhoB+gk19fKL/PW/5ra9MV23HN9Terfym8+AG6/Jdj/ZnZlmP9mdmWY/2Z2ZZj/ZkFlVse2cRwBy2a1Xw/QFfQMDw+OoLz597P6vu8y1dVYO36TSgT/1J4MQznvxzrz8y2HOvPzLYc68/Mthzrzyyo3NLOJl4IdvHuVPYW5d0kZKORvSh5KxLbRZZnECYiIqJCWPzZxPvmOXdhEC68goZhIiIiIqLFrOj8+fPW30BnGl5++umnAy9FEM2XvNRx66236jWX7WUzMmP95Yb1lxvWX25Yf9lhNgknU3awUdA5w0TzxTnD+S/H+jOzLcf6M7Mtx/ozsy3H+jMLKsdsEk7znTOclzBMVAgMw/ktx/ozsy3H+jOzLcf6M7Mtx/ozCyrHbBJe8wnDkGFYTpWwceLECf0o6Vvf+pZ+RJQ/pnZlan8mtu05bOVYf2a25Vh/ZrblWH9mtuVYf2ZB5ZhNwmmu33tQe+EH6IiIiIgotBiGiYiIiCi0GIaJiIiIKLQKHoYnBrox+cETmJmZ1FuIiIiILh5mE/IraBieOPu/MPPBA5gefACT796P0QtnRcOb0c8SERERLSxmE0pXsDA8NfwinNEnUFLyLkpWOCg6047zJx/G6OioLmGhpwVFDR2I61UiIiKi+WI2IZOcv4Fu7969+OY3v6nXksZP/QglpU+jaOJtOOPlKB44gjfPb8eq6n/Eli1bUFzsy+GyYe2LoG9/IyJ6kxKwPd7RgOqmTvU42t4H8TQ6GqrR1BlDt9OKWvmE3vep+i78gS6bItqe+Xq0aHz7299Gc3OzXnPZ3neSzFh/uWH95Yb1lxvWX3aYTcLJlB2syPur2d7Pz3Sfw6B7uk0Nv+KMHP+sM/XOzc7UazXOyHNXOM88/ldOf3+/MzU1pUvNoTvmiIbh9OlVv772qINYt7fmtEfhRKNRRzRAd1PGvm6ZxC60qPE+w/kvx/ozsy3H+jOzLcf6M7Mtx/ozCyrHbBJOi+4+wyWrP4aJiatk2sbU8CDeGdiEkRW1KC8vR1FRkS6lyZ5S4pJDXPSkilSZoro2tcVWzZ49qGnqQI9eJyIiIvIwm5BJQT9AV7Lqk0BRCcYnxvH22Odw5bZqrF27NvUyRJp4RzOaarrliDVED0pvtVWLxvZeHGCLIyIiIgNmE0pX0DC8YsUK0eDkoxlg9Y3YvHmz6n0Fi+NgVydiu9XMmnmJ7KpH7z5ObCciIqJMzCaUrqBh2FOEKdXQVq5cOWvPKy8ijdhT04SOA3qdiIiIKA2zCXkKOzK8+uOYHBvCaNHlKC0ts2hsEVTVAG36WkK8v1f9m63axnb0tmU3p4eIiIiWP2YTSlfYMHyJaHAr/wQja76CyspK99LEHGpbuxFrq1OT1Ju79MY0iduXiHINHYaLDrIHlu2UHiIiIlr2mE0oXYGvCwArN30N67b9Z1x22WXqUoRRbSucxH31atEqJ6iLZf/+/b7tSZFGsd0r0yifjaBxv4NW33Se2lbxfMq+mWWIiIgofJhNyK/gYbisrAyXXnopLrnkEpSUlOitRERERBcHswn5Fewb6IhywW+gyz/WX25Yf7lh/eWG9ZcdZpNwWnTfQEeUC34DXf7Lsf7MbMux/sxsy7H+zGzLsf7Mgsoxm4TTovsGOiIiIiKixY5hmIiIiIhCi2GYiIiIiEKLYZiIiIiIQothmIiIiIhCi2GYiIiIiEKLYZiIiIiIQothmIiIiIhCi99AR4sSv4Eu/1h/uWH95Yb1lxvWX3aYTcJp0X4D3fDYmHP4yBFnaHTUmZ6e1luJZsdvoMt/OdafmW051p+ZbTnWn5ltOdafWVA5ZpNwWpTfQDc0Nobnjh/HiOPgmXgcZwYGIBqdfnah9KClqAEdcb26rMifrQgN+fzhelpQVNQijkxERLT8WGeTeAcaeD4MhYKFYdnYnheNraysDDdXV2PlypU4dOwY3l+gQBzvaEBRS3ATNj4vg2BDB7xo2dNSlBEM3W3JJT2IquOmP592XEkeJ2Vf9Udn3pY8Xvp7qUNvex/2N0YyyiaP4wbm5DGK4P7YAdtrW+F0A3Wz1B0REdFSdLGziR3/+Vmf99VAlf/cHkdHgzxvZ57LvYWncXsFCcNeY1tVXo7rt29HRXExbolEULF2LXr6+xek0UUa98NprdVrmSK76hFtO5AaLg+0IVq/CyJayjUcaIshFmvDgbQGFRUB1BE9SqevHWhqTow6yyBc3VSDbvmcWrpR03UwJQQHiR/sgngxIKN8LHG8bvFeEiFVhN994v3tkUFYOhZHTbd+3bT3Jd4x2vu89+QgWS0B22sb0d67b5mOphMRURgthmxipxatIj/E1Dm6Vaxp0ag4t3ek5Ba3rD6Pd4sMEW1HX/o5neZUkDB8+OhRlIhe13WisZXqbWWi0e0WvbCR0lI8HY9jZGREP6PpXo9avFFUNaLaghbR+5HbZY8oMTKbGGl1e0eJfXVYnGtkWKRh1Ef9QVeG3yjqd+lw2XMAbbHdaN0dQ1t6GvaoY3QifkyuxHGwqxOxbl/DlY10f6MO17OR+wL1jY2oRxcOBoTQWvFe0Nvv/twi/HaK95d4rdrWZMOPVKFGP5yfCERfQeRypmEiIloe5pVNhAMZuUPyjch621OmVXgjt77HLW7OkdtSriLPllVS1GNPey/2caQq7woShuVBx6emMDMz427QZK+seHwcw+fOYXh4WG+VRKOqgx4B7UM7mtDhtY3OXkT2uj2ezqZqHNidXiaCxv1uL0iOiEbbbEc0ZeCLimypC6vwuwfeQKscJY7tFulyRyRjBDkhfhBdnTHIYu7jKCI73KcydDah2mv4Yqlr09slua9o5LtED7WqpjMwhPpHruP9vYgGvZj8WaLyeHodnWiqNv3RBW2XeboGnW7KJyIiWvKyzyaSOFmr3NGNmDiPu7lDhlt3mqLMHt014vxuEWjbsFuVb93RgeYm6CuzIs/MPWKWsKNxj/UVZ7JXkDB8kwh1o0ND+KXoZY3qRnda9Laeev11jJ88iWsqK1EsemMJMryJ/9WpoFiNpk45AKp/1V6ok6EUOnimSfSwqptEvLMnp0p40xIS4VdxR4lV1swYQZa5tlq/Xhx7HP9I8Cx8ly7UH09MbxfkFInOmioVcuXob2dKQ/fqpQj7Inp+sHAs3omaKsNfkOyZ1vWifa83Iu27hCL/mNvqdE81aDsREdHyk3U2UbzcsQORqNogHEO8M3klOeWq7SwSGUNdve1EU7McUY6gsdEqRWi12C3Cd2LAkPKiIGF4dXk5PrV9OwYHB/GkaHTHRU+rWzS2gXfewbUbNmDr1q2Z90tMC4te6JtTT4tvnq6cY5MFGXTVtAR3fnAyC8tw7o2auuHcP1XCnTMsenP+kKwbd/aDqe70CogwqgK2HDLu9E+V0HOG5ci4LyTvEH+ViQ5DQg9aqrtQ37c/McKdyv1jztwvaDsREdHyMK9sUhB6MGov0CzP+2kfsJ9LbWM7evdltw/NriBhWPasNqxbh09XVWFINLpDR47gwqlT+MTGjdi2bRs2b96MVatW6dKCHPVNXH4Q4h3Z9XqiERHnBBVis6HnxjbvU/ODk1m4LfkhObmo6RfpUyXk9Ax52wXvtm21aGyPikzrv+ODCKdzNXI91SL5oTs5amyYKlHbir76rsSlmIxpDGqu0j5E0oOw6CwkRnz1VA7Vmw3ars06DYOIiGiJyTqbBJIDSMnztMwM0Fd3gV6ocSV1XlUbMonzdYsMDpFG7PdfJrYl9ttT04a2bC6F06wK+g108lOZ8tOZL7z1FraJRlhZWYlNmzapxiZHQVPID8v5JtLGuh20QmzbF0Gf/BCaDHuJaQlyvk414nvkpyXdx3L0Vt6NIdbWqwLhroMNqI7vgSiOFlNI9KjjNqk7MbgfQJOT4tPLJ19v94HU6Qrp+7t3lEi20IyfQ2+XHwSUx9mLZv0+vSguyLqQ5WWvMW0qhtyvrrc947n015VkoN+/66B6f94zapt87/p9Z2xXTHWwsPgNdPnH+ssN6y83rL/csP6yk5dsEpg75JPyPFkHlVrklW19flfnaLkxKvKIfNaXU4z7CionqO0e//NysEy8vpcLvByRkV2E9DIhtGi/gW5qasq5cOGCMzg46IyOjjozMzP6GcqV6FA6IsTqtTzqjjnyr/Ni4jfQ5b8c68/Mthzrz8y2HOvPzLYc688sqByzSTgtym+gk0pKSlBRUYG1a9eivLw8c0SY5q22tRs1TdWpX9SRKzVCD3SndlOJiIiWDWYT8it4GKZCcifhW3/Y0Ib8BjrftAwiIiKi5YxhmIiIiIhCi2GYiIiIFq13330XAwMDem1uP//5z/UjIjsMw7RknD9/Xv1H0SP/4+hfJyKi5ef+++/HD3/4Q70W7NFHH8UnP/lJ3HPPPXoLkR2GYVoyHn74YfUfRY/8j6N/nYiIwscLwffddx++/vWv48UXX9TPENlhGCYiIqIlR4bgW265JSUE33HHHfpZInsMw0RERLRk+EeC7777boZgyllBv4GOaL7kt8icPXtWr7leeOEFjI2N4amnnlL3hfz7v/97vPfee+rbg7L5cIWcTyb393znO98Jxf4TExNYuXJlaH9+z3KrvwcffBCDg4N6bW5f+9rX9CPXQu0/Pj6OsrKyi/b6nqW6f5jr7xe/+IXKHtdccw0eeeQRdW9gGYKj0Wjg/pOTk8wmITTfb6Ar9sKt/HeuxVSOqFBk8PAvkrxRutf25IlBbvf+9Zfzr6cv/rbrP07QIvnXvf29xds/vVzQIpn2N5UzbffvK5egcumLVy59f9af/evKf9P3v9j1J4P0uXPnVMdQ/jvXIjuUpv3Tl6DjlZaWpux/6tQpY7n0xSuXvn/668/1c3j7S6b905f04wW9PuvPvCyG+pP7jIyMqLLyyzHkeUB+dbLcP6j+KLz87St9CXq+4F/HTDQfpnb1jW98w7nrrrv0muN897vfTVn32LbnsJXj17ma2ZZj/ZnZlmP9mdmWC3P9yf/Oy//eex555BFn586dannooYf01lTMJuG0aL+OmYiIiChf5PxgOU9YfmhOTjOS84flPGKi+Sp4GL4wPo5fHT2K4bExzMzM6K1ERERE8ydD8eHDh1Uolh+myyYUM5uQX0HD8JBoZM8dP44Rx8Ez8TjODAxgenpaP5sq3tGg5gIVFbWgR2+jRaKnRfxeGtAR1+sXyRe/+EXcddddeg248847U9aJiCh8/CPFXiieTTbZhOarBy0i0zXkMzioLFKYjFiwMCwb2/OisckPh9xcXa0++HHo2DG8b2x0PehoAtr7HDhOI/obitBi+9PGO9CwaAN0HB2Gn6Wnxd9A3AZT5C+kfibZMfCW9J/PPW7yeTeoph5XksdODbFupyN1m9wveSzDMep6xe9mPxoj6WWT7yvZmdFLQ4d4l/klP0F82WWX6TWou0j414mIaPmRgx5y8GMuXii+99579ZZM2WWTi0OdTzODQ8p5NftzeeZ5Wj1vyFCZr599TulpqUNvex/2y+CQVjYj//gW9yUCtte2wukG6tLrJg8KEoa9xraqvBzXb9+OiuJi3BKJoEKEmZ7+/sxGF+9HL2pQJeoMiKBxv4PWWvXMEhfBrvoo2g6kNBEcaIuifpf6YcXqAbTFYoi1HUhpSEAM3aLX6oilO9bm++XLIFyNpppu9ZxaumvQdTC10ZvFcbBLHDmGjPJR0WjVsfragabmxB9YvGOfeH97VBCW+/ejHX3G9yXEfO9pf6P46YmIiHIjBz3k4IetP/zDP9SPUmWdTS6SyK56RNMyQc+BNkTrd+nz6nzO5Q2obqpJ5ApHpMqaroOJcD2rbHOKCL/72mLY4wYH4FgcNd36ddPel3jHeiDUXZLZL2B7bSPae/eldALyoSBh+PDRoygRva7rRGMr1dvKRKPbLXphI6WleDoeV7dJcYlw19yEToiKFOm/oaM7OZqqeywtqrcjex2pI6ItPan7ZvSkfNSoaUtLoneSLJraA/F6LKnlZe8rWc7f20rpaRleP6NRy0YVrUcyC7chtrsVu0VDSsnMPrW7RYvv7XcbbfwgujpFA/T3FkRvSfW+5iL3RT0aG+vlX5D5jyCyC/XRTsSPuavH4p3i/XmvJToqrcmQuyMS1Y+IiIgWt+yyiZCSQcSSMTKrt3ujounlRSZIlvOPnPpzR+rorqLOw/5MkDaIlvW5XIZncS7vbkUyOdSi1XLQKuucIsJvZ2x38rVERklElkgVavTD+ZGDjJmdgFwVJAzLg45PTWVMSpe9suLxcQyfO4fh4WG9VQSsve2iD+D2MDJDXRuwW/YMWrGjoxlN3sik6F1E0vZ15hhO7uyNYK8o19ceRds+r1GLBiH3lUt3DJ1NHYkG65XvjnWiqfqAeBvu68IrIxp+c1e9HintFr0mQ29FNche9OvtqlHt8RqgbOAxyKwpg2XqCHKSv0cYF93BzmgEO9ynMnQ2Ves/MLnUydpLkPuKvyZEZGPs7IKxLemw7ebfOPp7o4gYX0z/cSWCstBWF/zHTUREdBFll008XgYR5/jOJnTo03Skcb+bG5w+tIvgui9x0tPlRVaIinNiM/aqcnLk1CsjpxCI0KK2u5Ei/dzvXlXuTQYH3xXaeZzL1eOgc7mkBxT1Ut3UqbdL88gp/b2IBr1Y2oCgSC0iX+nXThlQDNouaqeqBp3eiF2eFMtvlZPkv3MtpnImN0UiGBXP/VL0skZ1ozsteltPvf46xk+exDWVlSgWvTE7XjBzK0CkPTTLBhVpRKPebsv7Ranj+CTm2dT5o2OyvBoB9fdyNBVMxfupVg1IBs/kiGqSvxeTbFSKahRusM28LJJsnPsiet6NhcQlEi+g6+3i3arwWqPmotSKHl5nSs8qEaKr49gjOh7uWzyGeKc3fSVVT4s7VcPrfyT/w6D/uJtznzNsamvp20wLy5kXljMvLGdeWM68sJx5WWzlTOaXTbxz9g6kXAxVo8DyHC3Ohf7s6JVXI6C+0dwEmQPk2JF7flfB0xtR9ZGZwBv1dUdm9cl2XufyuSSnO7jncN8POo+cIq8ou+8vjawz+Rmkvd6AoG8wUg0o1umr9kHb7Zjag7cEPS9fzPom2LZfujE9Pe2cOnvWefj5551Hjxxx3hwacv5RPP4fjz3mPPPMM05/f79z4cIFXVroa3eiiDnilyFXHPF7cGJyJWV7kvhFya+QdkTwCyyTrjumy7srjkiN4pX0sfRj/7H85VUZ9YbUSqJMyvbZyH3ka8jX9ZWXryF/Dv+S8XP73qsi1wN+3pSfUel2Yog6apM6Ztrr6eMm9/PVvSLX9f4+c/7cs7xHW6Z2xZv2m9mWY/2Z2ZZj/ZnZlmP9mdmWY/2ZBZUraDZR59bkuTJxDk0p7zv/yrXEeTZ1ezDv/CvL+86n8zqXp77fFCnv2eU/x8tjpryWdxz/fmk5Re6fmkWkuX5u9z1n7mfYnpal/BbVl27IntWGdevw6aoqDA0O4tCRI7hw6hQ+sXEjtm3bhs2bN6uvUsxWvKNFXX6Xo5DiF5Q/NVXu0L4c6XW3WInIEWb/1IieDvP0ADlVAl1o3ufv3blzgMTvV/d+9PSN9EsQta3oq+9CtdctkpPHo6I35u8m9bSkzGM2UT+b/wNu6pJP+uUV+eFF+VFNb5pDBFU1qaPdchS9Or4nbUpKHB0tyZFg2Ys1jaQTERFdLPnNJt60A3ek154cYe70TY0Q58+MaRKSvqrcLD/Enjyfzu9cXotGmS/q0uYtz3nXp/nlFJmNUqYxqFH0fYjou1IliOySiDJ6KocaSQ/ars06DWOeChKGJfnd4ZsqK1EnGt3GoiLccOWVKY1NDqtnK1KFxBySOu+Tinqi+VwfoAsSadyjhuDlMZvj8qJGFmQDkFMCvHktdV36iXRuo+5MzMUVMubNyB8l8xOkkgr/EO9RNVzZyPvQ3uvNz5Wvi+SnNo0M83vFH0f65RVXLVr7RHQXP5OsztQ5QvqPPjE3WC7yj0uEZnjTRdzfjfcBP/nhAS+oBz0mIiJaCPnJJjJceuf+A3KWQRbcoOrlDjXNIuBUqKZKdPrP3fM/l8sc0dfe65sbrIKDeDezmG9O2RFJKeMONPrmAItFnf9FuV49XaSoWt5fd68bloO2K+6teDOnn+RIJH3ryxGmyzRzDUlPTU2pyw6Dg4PO6OioMzMzo5+hpcH2kk5+cZpE/sux/sxsy7H+zGzLsf7MbMux/syCyjGbXFzJKRt5NssUCWlRTZPwk72wiooK9YUJ5eXlKukXSuqtTnzLPEaMySN6l901okfHO0QQEdHysJDZJIxqW7tR01Sd3yvA8otH5I045rhz2HwUPAwvJP8dDVKWAlRcqNS2inpMm+tDREREZOTeEcL2TlhWVBaxvUNGdpZVGCYiIiIiygbDMBERERGFFsMwEREREYVWkfyEqn48Lz/4wQ/wzW9+U68R5ce3v/1tfPnLX9ZrRERE9phNwmne2cERbG9hYrq1y1y3sSCaD95aLf/lWH9mtuVYf2a25Vh/ZrblWH9mQeWYTcJp0d5ajYiIiIhosWIYJiIiIqLQYhgmIiIiotBiGCYiIiKi0GIYJiIiIqLQKngYvjA+jl8dPYrhsTHMzMzorUREREQXx8TIBRz7f7/G2IVhZhMqbBgeEgH4uePHMeI4eCYex5mBAUxPT+tnfXpaUNTQgbhepcWiBy1FRWjoyONvRv6ui1rEkYmIiBbe+PAQ3n7pecyMjuDYs4cxcPaMOZvkXRwdDUVoWbAToDyHNyCfp/DlqmBhWAbh50UQLisrw83V1Vi5ciUOHTuG94MCcdYWulFlJ97RgKL0N5cW+ntaijKCobstuaQHUXXc9OcNnQl5nJR94x1oSD+eCqa+18s4Rh162/uwvzGS2D/ldd1SKjD7j+P+2AHba1vhdAN1i/UXR0REy5YKwr99QWWSqn93o/r3zcOHMHDm/cxsos57S2HwJsvQ6z+fq/O+m6dS8oiXK9LO/clleYXsInkDYv14TkNDQ1izZo1ec+3duzfjW168ILyqvBzXbd+OUrFtfGYG3X19GDh/HrVVVdhUWYmSkhJ3B1np+yLo298IEbssyV9eNeJ7HLTW6k2LiWxA1XHscVrhvT0ZUPdFdLhUjfcAEGsDdid/hpQy6hhdqO/bD3e1AdVNNehOHFMco6EfjXviqE6rv9TXcvdtjtcAvRHs9cql1Ltbn131/tf2vX9RtgWt7vtMeV/y59iHiH6PSUHbJflazaLxmJ5zyW+RaW4WZXxM7Y/ssf5yw/rLDesvN6y/7JiyiTciXFa+Cld+4joUlZZiZmIcfb/sxtDAAK76TC0qN25KZhPDeTw3C51bZjkPp/xs+vyPKFC/180AhlymMkh8D5xFGbpcpuxgRX7zhu03vZi+Acf0bR9dr77q/N/+fmdCr3tGpqed77/8svOTf/7n1NfsjjmItjt93mPxttwl6rSrjY7T1x5Nbo91p64j5nS7xTL1tTtR8Xwspst6ryP+vz3q7S8WcUxFvRdRXj8XFW+gO2Nfwf8+/dsT3ON7hxU7ODHfz6P2l096/2ryteRruvzHSD+ej3rPqe8h8zjytb1/9ea0/VSdei+Q9r5S+X+WtJ8rIWi7S75W8v1l4jfQ5b8c68/Mthzrz8y2HOvPzLYc688sqJzpHPJa9y+cNw8fcmYmUtPJ1MgF57cPfN957pGf+I7nnnMT53l9PkzPIoo8X3rbUs578jzo367P4zGvvL9s6uu5h04tH3hKTjvfpuajgPOwzkb6p3Jfp1seR28z5IqUjLBILapvoJMHHZ+aypiULkeMi8fHMXzuHIaHh/XWNPIyuuOopTvWiaaOHtWDaW4CxC9UbO9Du+imRBr3Qvzy5O9FbJur1+aOvorfLmKdTZCHFEdA4373dcRvGNG2fckh/85eRPaK7SJRdjZV44DaV7wuvH1Fb6sOEE0ibbtfBLvqo+jt1wftOYC22J5E76znQBtiu8W73hERr31AHNEgfhBdnTHIYu7jKCI73KcyiJ+r2ncJo078yAlyX9RjVySCqppOdB00XduI42BXp/ue5Fp/L6JBLyZ/lqg8nl6H+D1V69dOmf4QtF3UTlUNOuPH9BoREVGBFRdhamJCnLdTs8n4hWFMiPPUuaFhXzYRGWGvyAaIued6ORoqs0hXPURAdPOElxtMuUWQUw3bYt36ueTobBt2Z5SNdzSrK7OqrMgebfuS0xa98lYDsiovySvI+j3qzXZq0djeiwPGQLK8FSQM3yRC1+jQEH4Zj2NUB+LTIyN46vXXMX7yJK6prERxcdBLy2H9tEAXqYKITmhqlo1DNNBGmxbhpwMldiAiArQnMf+2ukkc3ccLejKoJvb1kWFQ/K9Ovc9qNImdE6HXJ7KrHiJ5qgadCL9KDw606WAb2YX6aFtK45MB3H1fWVyeibbrP1DvD1JvF+IHu9BZU6UuddTuFgFfvyclEaJTL90ci3eipiqRdpPkpZW6XrTv9S6d1KI18bryPw51es5w0HYiIqKFV/Vvb1R3tjr2zCFMj46obSNnTuONg0/h3dEJrPu9a2bJJvpcmjhniqArkoM7pmPILfo8327IK14W2JEIJO5gVOLcLw/SGYc3XJTMDnNT7zG22y43GMjc0usL4mFRkDC8urwcn9q+HYODg3hSBOLjoqfVLYLwwDvv4NoNG7B169aAuU9y3or7oS0Zovrk0K+ig9VeoFk2lLQPes1LT4uef6vDmt5sLS18enNzU8igiy4cjMs/Cl+oVmHaGzV1w3SbLw1H1c/fh3Z/SNYdguwHU90/Mogwmvwjk+9JP61/DlnX/vcg/0gzA774g/fNYc7kdjYy9wvaTkREtDDKVq/GtutvwPnzgyI0Pomht4+rIPzOB4NY//vXzpJNfBIjve7SWhuUW7LnXun2lnzNU85SpBF7aprQcUCvh0RBwrDsWW1Ytw6frqrCkAjEh44cwYVTp/CJjRuxbds2bN68GatWrdKlM7kjkjrESfEOtMhrEeKXtN8/5JmraETENEGF0yzIEePEdAtBvL/MaRKSnCoBdDXvQ5uvpyZHid3Aqxu9mqaRPlVCTuOQt13wPrEpL1+IwFrn/2SrCKdzdQz0VAs39LuLvDSTPlUi0rgf3ahL3CUiYxqDHBE2TcSXH6xL1IM7laNeDqsHbddmnYZBRESUZzKbrFu/AdtvuhVDw8M4evgQTg2NYMPvf9wqm8jzIvxTKnvEuV8/zsgtahAoOQ1idnIKozx08nze0zG/QT/3Peo8Ee9Hr9qandrGdvS2ZZWKlryChGFJfhpT3jGiTgTijUVFuOHKK1MamxylzCQC4J6YCHxyxLQZ8Rrdw4pUAb7LB7E98hK9OyfXLTuPW5/UNqq5vupyh7ypg95sRYdy97XFUt0U2GjVVInO5FxcGWDlpRN/MDRNlXDVorWvHl3V7m3JZGDta+/V0zPkUgeoughmumSSMVVCq23tQ32XqGf5YmlzmdVxEqPZ7qKCsyjX66sHtO91w3LQdqUHHWJTSh0QEREVmMwm8o4RV32mDsXrN+GK628Izib63KzOufK8WNsqzsEyjuhzW12XLGTOLXL7fneKoCo7x63I5Pk3kUnEog49H+I9dsf0e24OOIgc3FLTQ0U504CaHB3O47jjkuAItp/aNH2ada5P7k1NTTkXLlxwBgcHndHRUWdmZkY/Q4udyPuz3vFh3ma9U4WLd5PIfznWn5ltOdafmW051p+ZbTnWn1lQOWaTcFpUd5Pwk72wiooKrF27FuXl5arHk3/JyeupC795JRe1rd2oaapO/aKOXMl7F8o7cSzi+xQSEdHytjDZJL/Sv5TLW/J6jg6pgofhheG/c4F/Cf5SB7Lh1qvxw4HzpW5Bc5E+GEBERLRE1baack6ez9EhVZBvoCPKFb+BLv9Yf7lh/eWG9Zcb1l92mE3CaVF9Ax1RrjhnOP/lWH9mtuVYf2a25Vh/ZrblWH9mQeWYTcJp0c4ZJiIiIiJarIpkIra9/HLy5Elcfvnles31xBNP6EdE+XXbbbfpRy5T+zOxbc9hK8f6M7Mtx/ozsy3H+jOzLcf6Mwsqx2wSXunZwS+oveQlDK9fv16vEeXHuXPnGIbzXI71Z2ZbjvVnZluO9WdmW471ZxZUjtkknEzZwS+ovXCaBBERERGFFsMwEREREYUWwzARERERhRbDMBERERGF1qINw+VbanDjjTfixu2VegstJXIS++TkpF4jIiJa+phNCutiZYecv4Hu6aefNn5iUzaYnRHf9nNxvNR7CmN6dS6J/U+8jmePD+ittFS8/PLLOHr0KK699lpcffXV6vvTsyH/IG699Va95rL9dDGZsf5yw/rLDesvN6y/7DCbLE2FyA42CntrtcrtuPGjV8yr0bDBLW2yQb/yyivq8YYNG3D99ddjy5Ytat2G6fYovLWQmW051p+ZbTnWn5ltOdafmW051p9ZUDlmk6WpENnBL6i9LPA0iUpsl5cXUpYabCn3nhYNVG9P6blJ5VtQ49+vZgvKfcdzr1iUY0uNfz399baLLanlvIVXPArn7NmzePLJJ9HT04OBAf7Hg4iIFhNmk8VoIbPDRZozfA7xl57Fs6+fEI/XI7JF/rZF45A9NZzA688+i5fi52RBTTy3M4L18nKGeE7ttz6Cq7aM4fizr4s9gCs+uh3bt++E22F7FscHZKP6KK7Qx3v2pbh41SvwUdGyyrdclSj3rHxOLOzgFZ4c2Xj88cfxm9/8BmNjtheliIiIFgKzyWK0ENlh8XyArnKdaA7CiUFk/O6950Qj2yl7S6phitVy2W0bwHHdmK4Qm8/FX3IbT/k6XKo6cKKRyX1kg5Wrq8pE38t1xUfZ8yIiIqIAzCahsLRurSbn6OjekloMXSa3Efp4PTZv6T2FgVO9Kb072fBqEtdDqFDkfLfbb78dn/rUp1Ce/nsiIiJaiphNCmohssPiCcNjY6IHJfh6RwkDg+pyA67YmpzDk6AvU4gSJ9xrEm5vamwQH8gDih6butKRZkw0OtkAUy95UCHISfCf/exnUVtbi8pKdnWJiGiJYDa5aBYyOxQsDMtPXHqXDGQjcCeVz2LsFN6Uv3x9uSF1kvqAnn+zHpGd7uUDudRs2YrtN8q5N3Kez3EcP/4S5CFkb2p75RhO9SbXvX3kvQErtyfXvU+F9p7iHNZ8q6ioUD25+vr6rD4NSkREVAjMJovfxcgOhb21GoWWvL2JbFOlpaV6S3Z4a7X8l2P9mdmWY/2Z2ZZj/ZnZlmP9mQWVYzZZmgqRHfyC2svSmjNMS4b8j9B8GzMRERGFz8XKDgX7BjqiXMjeHb+BLr9Yf7lh/eWG9Zcb1l92mE3CyZQdbHCaBC1KnCaR/3KsPzPbcqw/M9tyrD8z23KsP7Ogcswm4cRpEkREREREWWIYJiIiIqLQYhgmIiIiotDKy5xhokLgnOH8lmP9mdmWY/2Z2ZZj/ZnZlmP9mQWVYzYJr/nMGc45DD+2vxNn134Y00UlegtRbkqcKWw4fxSfa4jqLS6eDMxsy7H+zGzLsf7MbMux/sxsy7H+zILKMZuET1B28AtqLzlPkxgbH0fp9KheI8qdbE+yXREREc0Hs0n45JIdcg7DIyJlV0wO6jWi3K0W7Wlk6LxeIyIiyg6zSfjkkh1yDsO3334bVkycR+lM+L4/m/KvdHoMJRNDiEaDL3MQERHNhtkkXHLNDjl/A530T//0T9iw+TK8f0kVZopW6K1E2Sl2prBpuB/n3n8Pf/RHf6S3JtnOISMz1l9uWH+5Yf3lhvWXPWaTcJgrO9jI+QN0nh8+8AA2bNqKD1Zvw0Rxud5KZEf26taPvI2zp9/FnXfeqbem4gdIzGzLsf7MbMux/sxsy7H+zGzLsf7M5irHbLK8ednh1LvvoKmxUW8NFtRe8naf4Tv/4i8wNHAOlw71Y/3oO1g1PazSOmA98Eyh4qj2UT41pNrLetGrGx48FxiEiYiIssVsstyYs8OffPGL+vn5ydvIsOf06dN47LHHsLZyPVaVl2FFCb/Xg8ympmcwOj6O8x+cwx133IFNmzbpZ8w4MmJmW471Z2ZbjvVnZluO9WdmW471Z2Zb7ne/+x2ee+45VFyyltlkifOyg/ywnJwjLLNDzu1FhmE5b9jGiRMn9KPZ2R4vbOVYf2a25Vh/ZrblWH9mtuVYf2a25Vh/ZrblWH9mtuVYf2a25ZZ7/bFrREREREShxTBMRERERKHFMExEREREocUwTEREREShxTBMRERERKGVl2+gIzusv9yw/nLD+ssN6y83rL/csP5yw/rLzbKvP3lLCdtbUvDWJGa25Vh/ZrblWH9mtuVYf2a25Vh/ZrblWH9mtuVYf2a25Vh/Zrbllnv9cZoEEREREYUWwzARERERhRbDMBERERGFFsMwEREREYUU8P8BUXnuvlVJ9o0AAAAASUVORK5CYII=;" vertex="1" parent="1">
          <mxGeometry x="-97" y="650" width="707" height="173" as="geometry" />
        </mxCell>
        <mxCell id="kN2u7OVDUaO2u1wpTAqU-9" value="&lt;div style=&quot;background-color:#1e1e1e;color:#d4d4d4&quot;&gt;&lt;pre style=&quot;font-family:&#39;JetBrains Mono&#39;,monospace;font-size:9.8pt;&quot;&gt;&lt;span style=&quot;color:#4ec9b0;&quot;&gt;@OneToMany&lt;/span&gt;(&lt;span style=&quot;color:#9cdcfe;&quot;&gt;mappedBy &lt;/span&gt;= &lt;span style=&quot;color:#cd9069;&quot;&gt;&quot;teacher&quot;&lt;/span&gt;, &lt;span style=&quot;color:#9cdcfe;&quot;&gt;cascade &lt;/span&gt;= &lt;span style=&quot;color:#4ec9b0;&quot;&gt;CascadeType&lt;/span&gt;.&lt;span style=&quot;color:#4fc1ff;font-weight:bold;font-style:italic;&quot;&gt;ALL&lt;/span&gt;)&lt;br&gt;&lt;span style=&quot;color:#569cd6;&quot;&gt;private &lt;/span&gt;&lt;span style=&quot;color:#3d8f7f;&quot;&gt;List&lt;/span&gt;&amp;lt;&lt;span style=&quot;color:#4ec9b0;&quot;&gt;Subject&lt;/span&gt;&amp;gt; &lt;span style=&quot;color:#9cdcfe;&quot;&gt;subjects &lt;/span&gt;= &lt;span style=&quot;color:#c586c0;&quot;&gt;new &lt;/span&gt;&lt;span style=&quot;color:#dbdbaa;&quot;&gt;ArrayList&lt;/span&gt;&amp;lt;&amp;gt;();&lt;/pre&gt;&lt;/div&gt;" style="text;whiteSpace=wrap;html=1;" vertex="1" parent="1">
          <mxGeometry x="-235" y="860" width="500" height="80" as="geometry" />
        </mxCell>
        <mxCell id="kN2u7OVDUaO2u1wpTAqU-10" value="&lt;div style=&quot;background-color:#1e1e1e;color:#d4d4d4&quot;&gt;&lt;pre style=&quot;font-family:&#39;JetBrains Mono&#39;,monospace;font-size:9.8pt;&quot;&gt;&lt;span style=&quot;color:#4ec9b0;&quot;&gt;@ManyToOne&lt;/span&gt;(&lt;span style=&quot;color:#9cdcfe;&quot;&gt;cascade &lt;/span&gt;= &lt;span style=&quot;color:#4ec9b0;&quot;&gt;CascadeType&lt;/span&gt;.&lt;span style=&quot;color:#4fc1ff;font-weight:bold;font-style:italic;&quot;&gt;ALL&lt;/span&gt;)&lt;br&gt;&lt;span style=&quot;color:#4ec9b0;&quot;&gt;@JoinColumn&lt;/span&gt;(&lt;span style=&quot;color:#9cdcfe;&quot;&gt;name &lt;/span&gt;= &lt;span style=&quot;color:#cd9069;&quot;&gt;&quot;teacher_id&quot;&lt;/span&gt;, &lt;span style=&quot;color:#9cdcfe;&quot;&gt;referencedColumnName &lt;/span&gt;= &lt;span style=&quot;color:#cd9069;&quot;&gt;&quot;id&quot;&lt;/span&gt;)&lt;br&gt;&lt;span style=&quot;color:#569cd6;&quot;&gt;private &lt;/span&gt;&lt;span style=&quot;color:#4ec9b0;&quot;&gt;Teacher &lt;/span&gt;&lt;span style=&quot;color:#9cdcfe;&quot;&gt;teacher&lt;/span&gt;;&lt;/pre&gt;&lt;/div&gt;" style="text;whiteSpace=wrap;html=1;" vertex="1" parent="1">
          <mxGeometry x="295" y="860" width="510" height="100" as="geometry" />
        </mxCell>
        <mxCell id="kN2u7OVDUaO2u1wpTAqU-11" value="" style="endArrow=classic;html=1;rounded=0;strokeWidth=2;strokeColor=#FF0000;" edge="1" parent="1">
          <mxGeometry width="50" height="50" relative="1" as="geometry">
            <mxPoint x="-3" y="820" as="sourcePoint" />
            <mxPoint x="-3" y="870" as="targetPoint" />
          </mxGeometry>
        </mxCell>
        <mxCell id="kN2u7OVDUaO2u1wpTAqU-12" value="" style="endArrow=classic;html=1;rounded=0;strokeWidth=2;strokeColor=#FF0000;" edge="1" parent="1">
          <mxGeometry width="50" height="50" relative="1" as="geometry">
            <mxPoint x="536" y="823" as="sourcePoint" />
            <mxPoint x="536" y="873" as="targetPoint" />
          </mxGeometry>
        </mxCell>
      </root>
    </mxGraphModel>
  </diagram>
</mxfile>
